<mxfile host="app.diagrams.net" modified="2023-11-07T07:34:36.475Z" agent="Mozilla/5.0 (Windows NT 10.0; Win64; x64) AppleWebKit/537.36 (KHTML, like Gecko) Chrome/119.0.0.0 Safari/537.36" etag="t-XG7oYhXWa-AiVka_xH" version="21.3.3" type="device">
  <diagram id="C5RBs43oDa-KdzZeNtuy" name="Page-1">
    <mxGraphModel dx="444" dy="267" grid="1" gridSize="10" guides="1" tooltips="1" connect="1" arrows="1" fold="1" page="1" pageScale="1" pageWidth="827" pageHeight="1169" math="0" shadow="0">
      <root>
        <mxCell id="WIyWlLk6GJQsqaUBKTNV-0" />
        <mxCell id="WIyWlLk6GJQsqaUBKTNV-1" parent="WIyWlLk6GJQsqaUBKTNV-0" />
        <mxCell id="WIyWlLk6GJQsqaUBKTNV-2" value="" style="rounded=0;html=1;jettySize=auto;orthogonalLoop=1;fontSize=11;endArrow=block;endFill=0;endSize=8;strokeWidth=1;shadow=0;labelBackgroundColor=none;edgeStyle=orthogonalEdgeStyle;entryX=0.5;entryY=0;entryDx=0;entryDy=0;" parent="WIyWlLk6GJQsqaUBKTNV-1" source="WIyWlLk6GJQsqaUBKTNV-3" target="STYS5w0c7rFad4j8GuNq-0" edge="1">
          <mxGeometry relative="1" as="geometry">
            <mxPoint x="220" y="170" as="targetPoint" />
          </mxGeometry>
        </mxCell>
        <mxCell id="WIyWlLk6GJQsqaUBKTNV-3" value="Start" style="rounded=1;whiteSpace=wrap;html=1;fontSize=12;glass=0;strokeWidth=1;shadow=0;" parent="WIyWlLk6GJQsqaUBKTNV-1" vertex="1">
          <mxGeometry x="160" y="80" width="120" height="40" as="geometry" />
        </mxCell>
        <mxCell id="STYS5w0c7rFad4j8GuNq-0" value="" style="rounded=1;whiteSpace=wrap;html=1;" vertex="1" parent="WIyWlLk6GJQsqaUBKTNV-1">
          <mxGeometry x="160" y="180" width="120" height="60" as="geometry" />
        </mxCell>
        <mxCell id="STYS5w0c7rFad4j8GuNq-2" value="Prompt&lt;br&gt;&quot;Masukan Username!&quot;" style="text;html=1;strokeColor=none;fillColor=none;align=center;verticalAlign=middle;whiteSpace=wrap;rounded=0;" vertex="1" parent="WIyWlLk6GJQsqaUBKTNV-1">
          <mxGeometry x="190" y="195" width="60" height="30" as="geometry" />
        </mxCell>
        <mxCell id="STYS5w0c7rFad4j8GuNq-3" value="" style="endArrow=classic;html=1;rounded=0;exitX=0.5;exitY=1;exitDx=0;exitDy=0;" edge="1" parent="WIyWlLk6GJQsqaUBKTNV-1" source="STYS5w0c7rFad4j8GuNq-0">
          <mxGeometry width="50" height="50" relative="1" as="geometry">
            <mxPoint x="210" y="300" as="sourcePoint" />
            <mxPoint x="220" y="280" as="targetPoint" />
          </mxGeometry>
        </mxCell>
        <mxCell id="STYS5w0c7rFad4j8GuNq-4" value="" style="strokeWidth=2;html=1;shape=mxgraph.flowchart.decision;whiteSpace=wrap;" vertex="1" parent="WIyWlLk6GJQsqaUBKTNV-1">
          <mxGeometry x="170" y="280" width="100" height="100" as="geometry" />
        </mxCell>
        <mxCell id="STYS5w0c7rFad4j8GuNq-5" value="Username&lt;br&gt;benar?" style="text;html=1;strokeColor=none;fillColor=none;align=center;verticalAlign=middle;whiteSpace=wrap;rounded=0;" vertex="1" parent="WIyWlLk6GJQsqaUBKTNV-1">
          <mxGeometry x="190" y="315" width="60" height="30" as="geometry" />
        </mxCell>
        <mxCell id="STYS5w0c7rFad4j8GuNq-6" value="" style="endArrow=classic;html=1;rounded=0;exitX=0.5;exitY=1;exitDx=0;exitDy=0;exitPerimeter=0;" edge="1" parent="WIyWlLk6GJQsqaUBKTNV-1" source="STYS5w0c7rFad4j8GuNq-4">
          <mxGeometry width="50" height="50" relative="1" as="geometry">
            <mxPoint x="210" y="350" as="sourcePoint" />
            <mxPoint x="220" y="430" as="targetPoint" />
          </mxGeometry>
        </mxCell>
        <mxCell id="STYS5w0c7rFad4j8GuNq-7" value="" style="endArrow=classic;html=1;rounded=0;exitX=1;exitY=0.5;exitDx=0;exitDy=0;exitPerimeter=0;entryX=0.5;entryY=0;entryDx=0;entryDy=0;" edge="1" parent="WIyWlLk6GJQsqaUBKTNV-1" source="STYS5w0c7rFad4j8GuNq-4" target="STYS5w0c7rFad4j8GuNq-26">
          <mxGeometry width="50" height="50" relative="1" as="geometry">
            <mxPoint x="210" y="440" as="sourcePoint" />
            <mxPoint x="400" y="400" as="targetPoint" />
          </mxGeometry>
        </mxCell>
        <mxCell id="STYS5w0c7rFad4j8GuNq-8" value="Yes" style="text;html=1;strokeColor=none;fillColor=none;align=center;verticalAlign=middle;whiteSpace=wrap;rounded=0;" vertex="1" parent="WIyWlLk6GJQsqaUBKTNV-1">
          <mxGeometry x="210" y="380" width="60" height="30" as="geometry" />
        </mxCell>
        <mxCell id="STYS5w0c7rFad4j8GuNq-9" value="No" style="text;html=1;strokeColor=none;fillColor=none;align=center;verticalAlign=middle;whiteSpace=wrap;rounded=0;" vertex="1" parent="WIyWlLk6GJQsqaUBKTNV-1">
          <mxGeometry x="250" y="300" width="60" height="30" as="geometry" />
        </mxCell>
        <mxCell id="STYS5w0c7rFad4j8GuNq-10" value="" style="rounded=1;whiteSpace=wrap;html=1;" vertex="1" parent="WIyWlLk6GJQsqaUBKTNV-1">
          <mxGeometry x="160" y="430" width="120" height="60" as="geometry" />
        </mxCell>
        <mxCell id="STYS5w0c7rFad4j8GuNq-11" value="Prompt&lt;br&gt;&quot;Masukan password!&quot;" style="text;html=1;strokeColor=none;fillColor=none;align=center;verticalAlign=middle;whiteSpace=wrap;rounded=0;" vertex="1" parent="WIyWlLk6GJQsqaUBKTNV-1">
          <mxGeometry x="190" y="445" width="60" height="30" as="geometry" />
        </mxCell>
        <mxCell id="STYS5w0c7rFad4j8GuNq-12" value="" style="endArrow=classic;html=1;rounded=0;exitX=0.5;exitY=1;exitDx=0;exitDy=0;" edge="1" parent="WIyWlLk6GJQsqaUBKTNV-1" source="STYS5w0c7rFad4j8GuNq-10">
          <mxGeometry width="50" height="50" relative="1" as="geometry">
            <mxPoint x="210" y="440" as="sourcePoint" />
            <mxPoint x="220" y="550" as="targetPoint" />
          </mxGeometry>
        </mxCell>
        <mxCell id="STYS5w0c7rFad4j8GuNq-14" value="" style="rhombus;whiteSpace=wrap;html=1;" vertex="1" parent="WIyWlLk6GJQsqaUBKTNV-1">
          <mxGeometry x="180" y="550" width="80" height="80" as="geometry" />
        </mxCell>
        <mxCell id="STYS5w0c7rFad4j8GuNq-15" value="Password benar??" style="text;html=1;strokeColor=none;fillColor=none;align=center;verticalAlign=middle;whiteSpace=wrap;rounded=0;" vertex="1" parent="WIyWlLk6GJQsqaUBKTNV-1">
          <mxGeometry x="190" y="575" width="60" height="30" as="geometry" />
        </mxCell>
        <mxCell id="STYS5w0c7rFad4j8GuNq-16" value="" style="endArrow=classic;html=1;rounded=0;exitX=0.5;exitY=1;exitDx=0;exitDy=0;" edge="1" parent="WIyWlLk6GJQsqaUBKTNV-1" source="STYS5w0c7rFad4j8GuNq-14">
          <mxGeometry width="50" height="50" relative="1" as="geometry">
            <mxPoint x="210" y="620" as="sourcePoint" />
            <mxPoint x="220" y="680" as="targetPoint" />
          </mxGeometry>
        </mxCell>
        <mxCell id="STYS5w0c7rFad4j8GuNq-17" value="" style="rounded=1;whiteSpace=wrap;html=1;" vertex="1" parent="WIyWlLk6GJQsqaUBKTNV-1">
          <mxGeometry x="160" y="680" width="120" height="60" as="geometry" />
        </mxCell>
        <mxCell id="STYS5w0c7rFad4j8GuNq-18" value="alert&lt;br&gt;&quot;Welcome&quot;" style="text;html=1;strokeColor=none;fillColor=none;align=center;verticalAlign=middle;whiteSpace=wrap;rounded=0;" vertex="1" parent="WIyWlLk6GJQsqaUBKTNV-1">
          <mxGeometry x="190" y="695" width="60" height="30" as="geometry" />
        </mxCell>
        <mxCell id="STYS5w0c7rFad4j8GuNq-19" value="" style="endArrow=classic;html=1;rounded=0;exitX=1;exitY=0.5;exitDx=0;exitDy=0;entryX=0.5;entryY=1;entryDx=0;entryDy=0;" edge="1" parent="WIyWlLk6GJQsqaUBKTNV-1" source="STYS5w0c7rFad4j8GuNq-14" target="STYS5w0c7rFad4j8GuNq-26">
          <mxGeometry width="50" height="50" relative="1" as="geometry">
            <mxPoint x="210" y="620" as="sourcePoint" />
            <mxPoint x="400" y="570" as="targetPoint" />
          </mxGeometry>
        </mxCell>
        <mxCell id="STYS5w0c7rFad4j8GuNq-24" value="No" style="text;html=1;strokeColor=none;fillColor=none;align=center;verticalAlign=middle;whiteSpace=wrap;rounded=0;" vertex="1" parent="WIyWlLk6GJQsqaUBKTNV-1">
          <mxGeometry x="230" y="545" width="60" height="30" as="geometry" />
        </mxCell>
        <mxCell id="STYS5w0c7rFad4j8GuNq-26" value="" style="rounded=1;whiteSpace=wrap;html=1;" vertex="1" parent="WIyWlLk6GJQsqaUBKTNV-1">
          <mxGeometry x="354" y="430" width="120" height="60" as="geometry" />
        </mxCell>
        <mxCell id="STYS5w0c7rFad4j8GuNq-27" value="alert&lt;br&gt;&quot;Salah&quot;" style="text;html=1;strokeColor=none;fillColor=none;align=center;verticalAlign=middle;whiteSpace=wrap;rounded=0;" vertex="1" parent="WIyWlLk6GJQsqaUBKTNV-1">
          <mxGeometry x="384" y="445" width="60" height="30" as="geometry" />
        </mxCell>
      </root>
    </mxGraphModel>
  </diagram>
</mxfile>
